<?xml version="1.0" ?><svg id="Layer_1" style="enable-background:new 0 0 24 24;" version="1.1" viewBox="0 0 24 24" xml:space="preserve" xmlns="http://www.w3.org/2000/svg" xmlns:xlink="http://www.w3.org/1999/xlink"><title/><g id="Xmas_Tag"><path d="M22.163,11.44L12.743,2c-0.661-0.65-1.553-1.01-2.48-1h-7.25c-1.105,0-2,0.895-2,2v7.26   c-0.01,0.927,0.35,1.819,1,2.48l9.41,9.41c1.135,1.138,2.978,1.14,4.115,0.005c0.002-0.002,0.003-0.003,0.005-0.005l6.59-6.59   c1.138-1.135,1.14-2.978,0.005-4.115c-0.002-0.002-0.003-0.003-0.005-0.005H22.163z M5.013,7c-1.105,0-2-0.895-2-2s0.895-2,2-2   s2,0.895,2,2S6.117,7,5.013,7z M15.503,12.56c-0.194,0.196-0.511,0.197-0.707,0.003c-0.001-0.001-0.002-0.002-0.003-0.003   l-0.54-0.61l-1.24,0.31l0.94,0.94l0.77-0.26c0.262-0.088,0.547,0.053,0.635,0.315c0.088,0.262-0.053,0.547-0.315,0.635l0,0   l-0.82,0.27l-0.27,0.82c-0.068,0.202-0.257,0.338-0.47,0.34h-0.16c-0.262-0.086-0.405-0.368-0.32-0.63l0.26-0.77L12.273,13   l-0.34,1.28l0.61,0.54c0.215,0.173,0.249,0.488,0.076,0.703c-0.173,0.215-0.488,0.249-0.703,0.076   c-0.011-0.009-0.022-0.019-0.033-0.029L11.223,15l-0.85,0.17c-0.276,0.055-0.545-0.124-0.6-0.4c-0.055-0.276,0.124-0.545,0.4-0.6   l0.84-0.17l0.34-1.28L10.013,13l-0.16,0.79c-0.048,0.233-0.252,0.4-0.49,0.4h-0.1c-0.271-0.055-0.445-0.319-0.39-0.59c0,0,0,0,0,0   l0.14-0.81l-0.58-0.65c-0.191-0.199-0.185-0.516,0.014-0.707c0.199-0.191,0.516-0.185,0.707,0.014   c0.01,0.01,0.02,0.021,0.029,0.033l0.54,0.61l1.29-0.35l-0.94-0.94l-0.77,0.26h-0.16c-0.276,0.044-0.536-0.144-0.58-0.42   s0.144-0.536,0.42-0.58l0.82-0.27L10.123,9c0.088-0.262,0.373-0.403,0.635-0.315c0.262,0.088,0.403,0.373,0.315,0.635l-0.26,0.77   l0.94,0.94l0.34-1.28l-0.61-0.54c-0.215-0.173-0.249-0.488-0.076-0.703c0.173-0.215,0.488-0.249,0.703-0.076   c0.011,0.009,0.022,0.019,0.033,0.029l0.65,0.58l0.85-0.17c0.276-0.055,0.545,0.124,0.6,0.4c0.055,0.276-0.124,0.545-0.4,0.6   L13.013,10l-0.34,1.28l1.34-0.28l0.16-0.79c0.055-0.276,0.324-0.455,0.6-0.4c0.276,0.055,0.455,0.324,0.4,0.6l-0.17,0.85l0.58,0.65   C15.721,12.116,15.687,12.393,15.503,12.56z" style="fill:#303C42;"/></g></svg>